<mxfile host="65bd71144e">
    <diagram id="TVAd-Y1LiwFl4MuZHvTP" name="Page-1">
        <mxGraphModel dx="927" dy="394" grid="0" gridSize="10" guides="1" tooltips="1" connect="1" arrows="1" fold="1" page="1" pageScale="1" pageWidth="850" pageHeight="1100" background="#ffffff" math="0" shadow="0">
            <root>
                <mxCell id="0"/>
                <mxCell id="1" parent="0"/>
                <mxCell id="3" value="cloned from github" style="rounded=1;whiteSpace=wrap;html=1;" vertex="1" parent="1">
                    <mxGeometry x="22" y="7" width="120" height="60" as="geometry"/>
                </mxCell>
                <mxCell id="5" value="" style="shape=flexArrow;endArrow=classic;html=1;fillColor=#000000;exitX=1;exitY=0.5;exitDx=0;exitDy=0;entryX=0;entryY=0.5;entryDx=0;entryDy=0;" edge="1" parent="1" source="3" target="6">
                    <mxGeometry width="50" height="50" relative="1" as="geometry">
                        <mxPoint x="399" y="178" as="sourcePoint"/>
                        <mxPoint x="206" y="42" as="targetPoint"/>
                    </mxGeometry>
                </mxCell>
                <mxCell id="6" value="run:&lt;br&gt;npm run build" style="rounded=1;whiteSpace=wrap;html=1;" vertex="1" parent="1">
                    <mxGeometry x="213" y="7" width="120" height="60" as="geometry"/>
                </mxCell>
                <mxCell id="7" value="runs ./build.sh" style="rounded=1;whiteSpace=wrap;html=1;" vertex="1" parent="1">
                    <mxGeometry x="213" y="107" width="120" height="60" as="geometry"/>
                </mxCell>
                <mxCell id="8" value="" style="shape=flexArrow;endArrow=classic;html=1;fillColor=#000000;exitX=1;exitY=0.5;exitDx=0;exitDy=0;" edge="1" parent="1" source="6">
                    <mxGeometry width="50" height="50" relative="1" as="geometry">
                        <mxPoint x="391" y="106" as="sourcePoint"/>
                        <mxPoint x="401" y="37" as="targetPoint"/>
                    </mxGeometry>
                </mxCell>
                <mxCell id="10" value="" style="shape=flexArrow;endArrow=classic;html=1;fillColor=#000000;exitX=0;exitY=0.5;exitDx=0;exitDy=0;" edge="1" parent="1" source="7">
                    <mxGeometry width="50" height="50" relative="1" as="geometry">
                        <mxPoint x="183" y="224" as="sourcePoint"/>
                        <mxPoint x="185" y="598" as="targetPoint"/>
                        <Array as="points">
                            <mxPoint x="178" y="137"/>
                        </Array>
                    </mxGeometry>
                </mxCell>
                <mxCell id="11" value="creates compile.json" style="rounded=1;whiteSpace=wrap;html=1;" vertex="1" parent="1">
                    <mxGeometry x="213" y="188" width="120" height="60" as="geometry"/>
                </mxCell>
                <mxCell id="12" value="" style="shape=flexArrow;endArrow=classic;html=1;fillColor=#000000;" edge="1" parent="1" target="11">
                    <mxGeometry width="50" height="50" relative="1" as="geometry">
                        <mxPoint x="181" y="219" as="sourcePoint"/>
                        <mxPoint x="136" y="223" as="targetPoint"/>
                    </mxGeometry>
                </mxCell>
                <mxCell id="13" value="installs rust modules w/ cargo" style="rounded=1;whiteSpace=wrap;html=1;" vertex="1" parent="1">
                    <mxGeometry x="213" y="266" width="120" height="60" as="geometry"/>
                </mxCell>
                <mxCell id="14" value="" style="shape=flexArrow;endArrow=classic;html=1;fillColor=#000000;" edge="1" parent="1" target="13">
                    <mxGeometry width="50" height="50" relative="1" as="geometry">
                        <mxPoint x="184" y="297" as="sourcePoint"/>
                        <mxPoint x="457" y="320" as="targetPoint"/>
                    </mxGeometry>
                </mxCell>
                <mxCell id="15" value="installs node modules w/ npm&lt;br&gt;" style="rounded=1;whiteSpace=wrap;html=1;" vertex="1" parent="1">
                    <mxGeometry x="213" y="344" width="120" height="60" as="geometry"/>
                </mxCell>
                <mxCell id="16" value="" style="shape=flexArrow;endArrow=classic;html=1;fillColor=#000000;entryX=0;entryY=0.5;entryDx=0;entryDy=0;" edge="1" parent="1" target="15">
                    <mxGeometry width="50" height="50" relative="1" as="geometry">
                        <mxPoint x="177" y="374" as="sourcePoint"/>
                        <mxPoint x="315" y="416" as="targetPoint"/>
                    </mxGeometry>
                </mxCell>
                <mxCell id="17" value="collects image data and puts it in img/info.json" style="rounded=1;whiteSpace=wrap;html=1;" vertex="1" parent="1">
                    <mxGeometry x="211" y="415" width="120" height="60" as="geometry"/>
                </mxCell>
                <mxCell id="18" value="" style="shape=flexArrow;endArrow=classic;html=1;fillColor=#000000;" edge="1" parent="1" target="17">
                    <mxGeometry width="50" height="50" relative="1" as="geometry">
                        <mxPoint x="176" y="445" as="sourcePoint"/>
                        <mxPoint x="239" y="397" as="targetPoint"/>
                    </mxGeometry>
                </mxCell>
                <mxCell id="19" value="collects data for the compiler and compiles the codebase" style="rounded=1;whiteSpace=wrap;html=1;" vertex="1" parent="1">
                    <mxGeometry x="213" y="490" width="120" height="60" as="geometry"/>
                </mxCell>
                <mxCell id="20" value="" style="shape=flexArrow;endArrow=classic;html=1;fillColor=#000000;" edge="1" parent="1" target="19">
                    <mxGeometry width="50" height="50" relative="1" as="geometry">
                        <mxPoint x="189" y="520" as="sourcePoint"/>
                        <mxPoint x="221" y="516" as="targetPoint"/>
                    </mxGeometry>
                </mxCell>
                <mxCell id="21" value="runs the program" style="rounded=1;whiteSpace=wrap;html=1;" vertex="1" parent="1">
                    <mxGeometry x="130" y="596" width="120" height="60" as="geometry"/>
                </mxCell>
                <mxCell id="22" value="runs build.makefile" style="rounded=1;whiteSpace=wrap;html=1;" vertex="1" parent="1">
                    <mxGeometry x="404" y="7" width="120" height="60" as="geometry"/>
                </mxCell>
                <mxCell id="23" value="" style="shape=flexArrow;endArrow=classic;html=1;fillColor=#000000;exitX=0.5;exitY=1;exitDx=0;exitDy=0;entryX=0.5;entryY=0;entryDx=0;entryDy=0;" edge="1" parent="1" source="22" target="7">
                    <mxGeometry width="50" height="50" relative="1" as="geometry">
                        <mxPoint x="443" y="117" as="sourcePoint"/>
                        <mxPoint x="493" y="67" as="targetPoint"/>
                        <Array as="points">
                            <mxPoint x="464" y="78"/>
                            <mxPoint x="271" y="78"/>
                        </Array>
                    </mxGeometry>
                </mxCell>
            </root>
        </mxGraphModel>
    </diagram>
</mxfile>
